# xmcd
#
# Track frame offsets:
#	150
#	4454
#	7990
#	25067
#	43756
#	63894
#	84047
#	107854
#	126249
#	149476
#	168225
#	185838
#	202641
#	204104
#	222600
#	242090
#	259681
#	281382
#	300620
#	318603
#	335546
#	354480
#
# Disc length: 4776 seconds
#
# Revision: 0
# Processed by: cddbd v1.5.1PL0 Copyright (c) Steve Scherf et al.
# Submitted via: audiograbber 1.83.01
#
DISCID=3a12a616
DTITLE=Emma Shapplin - Best
DYEAR=2005
DGENRE=New Age
TTITLE0=Intro mysteries cathedrall
TTITLE1=Spesso, sprofondo
TTITLE2=Discovering yourself
TTITLE3=Mai piu serena
TTITLE4=Spente le stelle
TTITLE5=Fera vantura
TTITLE6=Nell' aria brunna
TTITLE7=Un sospir'di voi
TTITLE8=Celtica
TTITLE9=Dolce veneno
TTITLE10=La silente riva
TTITLE11=Reprendo mai piu ...
TTITLE12=A la frontiere du reve
TTITLE13=Cour senza sanque
TTITLE14=Ira di dio
TTITLE15=Leonora
TTITLE16=La notte etterna
TTITLE17=Carmine meo
TTITLE18=Aedeus
TTITLE19=Miserere venere ...
TTITLE20=Da me non venni
TTITLE21=De l'abime au rivage...
EXTD=
EXTT0=
EXTT1=
EXTT2=
EXTT3=
EXTT4=
EXTT5=
EXTT6=
EXTT7=
EXTT8=
EXTT9=
EXTT10=
EXTT11=
EXTT12=
EXTT13=
EXTT14=
EXTT15=
EXTT16=
EXTT17=
EXTT18=
EXTT19=
EXTT20=
EXTT21=
PLAYORDER=
